<svg width="35" height="33" viewBox="0 0 35 33" fill="none" xmlns="http://www.w3.org/2000/svg">
<path d="M24.4512 0.996786V9.32801C24.4512 9.59347 24.5567 9.84806 24.7444 10.0358C24.9321 10.2235 25.1867 10.3289 25.4521 10.3289H33.695C33.8402 10.3293 33.9838 10.298 34.1156 10.2372C34.2475 10.1764 34.3644 10.0874 34.4584 9.97666C34.5523 9.86591 34.6209 9.73602 34.6594 9.596C34.6979 9.45599 34.7053 9.30922 34.6812 9.16603C33.8164 4.31967 31.5239 0.654582 25.5736 0.00692911C25.4333 -0.00962724 25.2912 0.00356601 25.1564 0.0456502C25.0216 0.0877343 24.8972 0.157799 24.7913 0.251204C24.6854 0.344609 24.6004 0.459266 24.5418 0.587745C24.4832 0.716224 24.4523 0.855581 24.4512 0.996786V0.996786Z" fill="#9764C7"/>
<path d="M25.5846 10.9986H27.8624C28.0427 10.9934 28.2215 11.0316 28.3839 11.1099C28.5463 11.1882 28.6876 11.3044 28.7958 11.4486C28.9039 11.5929 28.9759 11.7609 29.0056 11.9388C29.0353 12.1166 29.0218 12.299 28.9664 12.4705C28.5653 13.6444 27.4944 14.5276 26.1476 15.2636C25.9746 15.3571 25.7803 15.4042 25.5837 15.4002C25.3871 15.3963 25.1948 15.3414 25.0258 15.2409C24.8567 15.1405 24.7166 14.9979 24.6191 14.827C24.5216 14.6562 24.4701 14.463 24.4696 14.2664V12.1431C24.4666 11.8437 24.5822 11.5554 24.7911 11.341C25 11.1266 25.2853 11.0035 25.5846 10.9986V10.9986Z" fill="#9764C7"/>
<path d="M10.6003 8.93426L7.36202 17.718C7.2381 18.0522 7.03092 18.3493 6.76009 18.581C6.48927 18.8127 6.16377 18.9715 5.81442 19.0423C5.46508 19.113 5.10345 19.0934 4.7638 18.9853C4.42415 18.8772 4.11772 18.6843 3.87352 18.4246C0.929645 15.2967 -0.336222 10.1008 0.0759211 2.0235C0.087722 1.76891 0.170931 1.52283 0.316035 1.31331C0.461139 1.1038 0.66228 0.939267 0.896452 0.838688C1.13062 0.738109 1.38838 0.705515 1.64023 0.744536C1.89208 0.783557 2.12787 0.89261 2.32063 1.05934C4.60741 3.07217 7.07895 4.86486 9.7024 6.41353C10.1243 6.66131 10.4455 7.04975 10.6097 7.51066C10.7739 7.97157 10.7705 8.47556 10.6003 8.93426V8.93426Z" fill="#9764C7"/>
<path d="M21.8017 0.0584422C17.6803 0.614099 14.4862 2.78155 12.4071 6.88826C12.3813 6.94346 12.3555 6.99864 12.3335 7.05752L3.63063 30.6858C3.55396 30.9025 3.52911 31.1343 3.55808 31.3623C3.58705 31.5903 3.66903 31.8084 3.79745 31.9991C3.92587 32.1897 4.09716 32.3477 4.29759 32.4602C4.49803 32.5728 4.72205 32.6368 4.95169 32.6472C8.26355 32.6987 10.1844 31.4549 10.8394 29.0778C10.9144 28.7994 11.0694 28.5492 11.2853 28.3582C11.5012 28.1672 11.7684 28.0438 12.0538 28.0033C18.1292 27.1495 22.1955 23.8781 23.4245 17.1808C23.4392 17.0895 23.4466 16.9972 23.4466 16.9048V1.50837C23.4449 1.30148 23.3997 1.09727 23.3138 0.909048C23.2278 0.72083 23.1032 0.552813 22.948 0.416006C22.7928 0.279198 22.6105 0.176644 22.413 0.115041C22.2155 0.0534388 22.0072 0.034125 21.8017 0.0584422V0.0584422ZM19.4172 8.15411C19.1179 8.15483 18.8251 8.06677 18.5759 7.90103C18.3267 7.73528 18.1323 7.49939 18.0173 7.22309C17.9022 6.9468 17.8717 6.64257 17.9297 6.34895C17.9876 6.05533 18.1314 5.78552 18.3427 5.57363C18.5541 5.36175 18.8236 5.21732 19.1171 5.15866C19.4106 5.1 19.7148 5.12974 19.9914 5.2441C20.268 5.35846 20.5044 5.55231 20.6708 5.80111C20.8371 6.0499 20.9259 6.34246 20.9259 6.64174C20.924 7.04094 20.7643 7.42315 20.4816 7.70509C20.199 7.98703 19.8164 8.14577 19.4172 8.14674V8.15411Z" fill="#9764C7"/>
</svg>
