<svg
      width="136"
      height="56"
      viewBox="0 0 136 56"
      fill="none"
      xmlns="http://www.w3.org/2000/svg"
    >
      <path
        d="M24.4522 0.996828V9.3284C24.4522 9.59387 24.5577 9.84847 24.7454 10.0362C24.9331 10.2239 25.1877 10.3293 25.4532 10.3293H33.6964C33.8416 10.3298 33.9852 10.2985 34.117 10.2376C34.2489 10.1768 34.3659 10.0878 34.4598 9.97707C34.5537 9.86632 34.6223 9.73642 34.6608 9.5964C34.6993 9.45638 34.7068 9.30961 34.6826 9.16641C33.8178 4.31985 31.5252 0.654609 25.5746 0.0069294C25.4344 -0.00962764 25.2922 0.00356616 25.1574 0.0456521C25.0226 0.087738 24.8982 0.157806 24.7923 0.251215C24.6864 0.344623 24.6014 0.459285 24.5428 0.587769C24.4842 0.716253 24.4533 0.855616 24.4522 0.996828Z"
        fill="#9764C7"
      />
      <path
        d="M25.5857 10.999H27.8636C28.0438 10.9938 28.2227 11.0321 28.3851 11.1104C28.5475 11.1887 28.6888 11.3048 28.797 11.4491C28.9051 11.5933 28.9771 11.7614 29.0068 11.9393C29.0365 12.1171 29.023 12.2995 28.9676 12.471C28.5665 13.645 27.4956 14.5282 26.1487 15.2642C25.9757 15.3578 25.7814 15.4048 25.5848 15.4009C25.3881 15.3969 25.1959 15.342 25.0268 15.2416C24.8577 15.1411 24.7176 14.9985 24.6201 14.8277C24.5226 14.6568 24.4711 14.4636 24.4706 14.2669V12.1436C24.4677 11.8442 24.5833 11.5559 24.7922 11.3414C25.0011 11.127 25.2863 11.0039 25.5857 10.999Z"
        fill="#9764C7"
      />
      <path
        d="M10.6007 8.93464L7.36232 17.7188C7.2384 18.053 7.03121 18.35 6.76037 18.5818C6.48954 18.8135 6.16402 18.9723 5.81466 19.043C5.4653 19.1138 5.10367 19.0942 4.764 18.9861C4.42433 18.878 4.11789 18.685 3.87368 18.4254C0.929684 15.2974 -0.336236 10.1012 0.0759242 2.02358C0.0877256 1.76899 0.170938 1.52289 0.316049 1.31337C0.461159 1.10384 0.662308 0.939306 0.89649 0.838723C1.13067 0.73814 1.38843 0.705544 1.6403 0.744567C1.89216 0.78359 2.12796 0.892647 2.32072 1.05938C4.6076 3.0723 7.07924 4.86506 9.7028 6.4138C10.1247 6.66159 10.4459 7.05004 10.6101 7.51097C10.7743 7.9719 10.771 8.47591 10.6007 8.93464Z"
        fill="#9764C7"
      />
      <path
        d="M21.8026 0.0584426C17.681 0.614123 14.4868 2.78166 12.4076 6.88855C12.3818 6.94374 12.3561 6.99893 12.334 7.05781L3.63078 30.6871C3.5541 30.9038 3.52926 31.1355 3.55823 31.3636C3.5872 31.5917 3.66918 31.8097 3.79761 32.0004C3.92603 32.1911 4.09733 32.349 4.29777 32.4616C4.49822 32.5741 4.72225 32.6381 4.9519 32.6485C8.2639 32.7001 10.1849 31.4562 10.8399 29.079C10.9149 28.8006 11.0699 28.5504 11.2858 28.3594C11.5017 28.1684 11.7689 28.045 12.0543 28.0044C18.13 27.1507 22.1964 23.8791 23.4255 17.1815C23.4402 17.0902 23.4475 16.9979 23.4476 16.9055V1.50843C23.4459 1.30153 23.4006 1.09731 23.3147 0.909083C23.2288 0.720858 23.1042 0.552834 22.949 0.416021C22.7937 0.279207 22.6114 0.176649 22.4139 0.115044C22.2164 0.0534391 22.0081 0.0341244 21.8026 0.0584426ZM19.418 8.15444C19.1187 8.15517 18.8259 8.0671 18.5767 7.90135C18.3275 7.7356 18.133 7.4997 18.018 7.22339C17.903 6.94709 17.8725 6.64285 17.9304 6.34921C17.9884 6.05558 18.1321 5.78575 18.3435 5.57386C18.5549 5.36197 18.8244 5.21753 19.1179 5.15887C19.4114 5.10021 19.7157 5.12995 19.9922 5.24431C20.2688 5.35868 20.5053 5.55254 20.6716 5.80135C20.838 6.05015 20.9268 6.34272 20.9268 6.64201C20.9248 7.04123 20.7651 7.42345 20.4825 7.7054C20.1999 7.98735 19.8172 8.14611 19.418 8.14708V8.15444Z"
        fill="#9764C7"
      />
      <path
        d="M51.609 22.748V47.248H48.109V36.328H34.039V47.248H30.539V22.748H34.039V33.283H48.109V22.748H51.609ZM75.2173 38.078C75.2173 38.3347 75.194 38.673 75.1473 39.093H60.0973C60.3073 40.7263 61.019 42.0447 62.2323 43.048C63.469 44.028 64.9973 44.518 66.8173 44.518C69.034 44.518 70.819 43.7713 72.1723 42.278L74.0273 44.448C73.1873 45.428 72.1373 46.1747 70.8773 46.688C69.6407 47.2013 68.2523 47.458 66.7123 47.458C64.7523 47.458 63.014 47.0613 61.4973 46.268C59.9807 45.4513 58.8023 44.3197 57.9623 42.873C57.1457 41.4263 56.7373 39.793 56.7373 37.973C56.7373 36.1763 57.134 34.5547 57.9273 33.108C58.744 31.6613 59.8523 30.5413 61.2523 29.748C62.6757 28.9313 64.274 28.523 66.0473 28.523C67.8207 28.523 69.3957 28.9313 70.7723 29.748C72.1723 30.5413 73.2573 31.6613 74.0273 33.108C74.8207 34.5547 75.2173 36.2113 75.2173 38.078ZM66.0473 31.358C64.4373 31.358 63.084 31.848 61.9873 32.828C60.914 33.808 60.284 35.0913 60.0973 36.678H71.9973C71.8107 35.1147 71.169 33.843 70.0723 32.863C68.999 31.8597 67.6573 31.358 66.0473 31.358ZM83.103 31.813C83.6863 30.7397 84.5496 29.923 85.693 29.363C86.8363 28.803 88.2247 28.523 89.858 28.523V31.778C89.6713 31.7547 89.4147 31.743 89.088 31.743C87.268 31.743 85.833 32.2913 84.783 33.388C83.7563 34.4613 83.243 36.0013 83.243 38.008V47.248H79.883V28.698H83.103V31.813ZM111.328 21.278V47.248H108.108V44.308C107.362 45.3347 106.417 46.1163 105.273 46.653C104.13 47.1897 102.87 47.458 101.493 47.458C99.6966 47.458 98.0866 47.0613 96.6633 46.268C95.24 45.4747 94.12 44.3663 93.3033 42.943C92.51 41.4963 92.1133 39.8397 92.1133 37.973C92.1133 36.1063 92.51 34.4613 93.3033 33.038C94.12 31.6147 95.24 30.5063 96.6633 29.713C98.0866 28.9197 99.6966 28.523 101.493 28.523C102.823 28.523 104.048 28.7797 105.168 29.293C106.288 29.783 107.222 30.518 107.968 31.498V21.278H111.328ZM101.773 44.518C102.94 44.518 104.002 44.2497 104.958 43.713C105.915 43.153 106.662 42.383 107.198 41.403C107.735 40.3997 108.003 39.2563 108.003 37.973C108.003 36.6897 107.735 35.558 107.198 34.578C106.662 33.5747 105.915 32.8047 104.958 32.268C104.002 31.7313 102.94 31.463 101.773 31.463C100.583 31.463 99.51 31.7313 98.5533 32.268C97.62 32.8047 96.8733 33.5747 96.3133 34.578C95.7766 35.558 95.5083 36.6897 95.5083 37.973C95.5083 39.2563 95.7766 40.3997 96.3133 41.403C96.8733 42.383 97.62 43.153 98.5533 43.713C99.51 44.2497 100.583 44.518 101.773 44.518Z"
        fill="#9764C7"
      />
      <path
        d="M69.424 16.104C68.816 15.1227 68.3467 13.9973 68.016 12.728C67.6853 11.448 67.52 10.0773 67.52 8.616C67.52 7.15467 67.6853 5.784 68.016 4.504C68.3467 3.21333 68.816 2.088 69.424 1.128H70.88C70.24 2.248 69.7707 3.42133 69.472 4.648C69.1733 5.87467 69.024 7.19733 69.024 8.616C69.024 10.0347 69.1733 11.3573 69.472 12.584C69.7707 13.8107 70.24 14.984 70.88 16.104H69.424ZM77.3426 4.44C78.164 4.44 78.9 4.62133 79.5506 4.984C80.2013 5.34667 80.708 5.85333 81.0706 6.504C81.444 7.15467 81.6306 7.90667 81.6306 8.76C81.6306 9.61333 81.444 10.3707 81.0706 11.032C80.708 11.6827 80.2013 12.1893 79.5506 12.552C78.9 12.9147 78.164 13.096 77.3426 13.096C76.7133 13.096 76.1373 12.9733 75.6146 12.728C75.092 12.4827 74.66 12.1253 74.3186 11.656V13H72.8466V1.128H74.3826V5.8C74.724 5.352 75.1506 5.016 75.6626 4.792C76.1746 4.55733 76.7346 4.44 77.3426 4.44ZM77.2146 11.752C77.7586 11.752 78.244 11.6293 78.6706 11.384C79.108 11.128 79.4493 10.776 79.6946 10.328C79.9506 9.86933 80.0786 9.34667 80.0786 8.76C80.0786 8.17333 79.9506 7.656 79.6946 7.208C79.4493 6.74933 79.108 6.39733 78.6706 6.152C78.244 5.90667 77.7586 5.784 77.2146 5.784C76.6813 5.784 76.196 5.90667 75.7586 6.152C75.3213 6.39733 74.98 6.74933 74.7346 7.208C74.4893 7.656 74.3666 8.17333 74.3666 8.76C74.3666 9.34667 74.4893 9.86933 74.7346 10.328C74.98 10.776 75.3213 11.128 75.7586 11.384C76.196 11.6293 76.6813 11.752 77.2146 11.752ZM91.4169 8.808C91.4169 8.92533 91.4062 9.08 91.3849 9.272H84.5049C84.6009 10.0187 84.9262 10.6213 85.4809 11.08C86.0462 11.528 86.7449 11.752 87.5769 11.752C88.5902 11.752 89.4062 11.4107 90.0249 10.728L90.8729 11.72C90.4889 12.168 90.0089 12.5093 89.4329 12.744C88.8675 12.9787 88.2329 13.096 87.5289 13.096C86.6329 13.096 85.8382 12.9147 85.1449 12.552C84.4515 12.1787 83.9129 11.6613 83.5289 11C83.1555 10.3387 82.9689 9.592 82.9689 8.76C82.9689 7.93867 83.1502 7.19733 83.5129 6.536C83.8862 5.87467 84.3929 5.36267 85.0329 5C85.6835 4.62667 86.4142 4.44 87.2249 4.44C88.0355 4.44 88.7555 4.62667 89.3849 5C90.0249 5.36267 90.5209 5.87467 90.8729 6.536C91.2355 7.19733 91.4169 7.95467 91.4169 8.808ZM87.2249 5.736C86.4889 5.736 85.8702 5.96 85.3689 6.408C84.8782 6.856 84.5902 7.44267 84.5049 8.168H89.9449C89.8595 7.45333 89.5662 6.872 89.0649 6.424C88.5742 5.96533 87.9609 5.736 87.2249 5.736ZM98.3178 12.504C98.0938 12.696 97.8164 12.8453 97.4858 12.952C97.1551 13.048 96.8138 13.096 96.4618 13.096C95.6084 13.096 94.9471 12.8667 94.4778 12.408C94.0084 11.9493 93.7738 11.2933 93.7738 10.44V5.784H92.3338V4.52H93.7738V2.664H95.3098V4.52H97.7418V5.784H95.3098V10.376C95.3098 10.8347 95.4218 11.1867 95.6458 11.432C95.8804 11.6773 96.2111 11.8 96.6378 11.8C97.1071 11.8 97.5071 11.6667 97.8378 11.4L98.3178 12.504ZM103.263 4.44C104.436 4.44 105.332 4.728 105.951 5.304C106.58 5.88 106.895 6.73867 106.895 7.88V13H105.439V11.88C105.183 12.2747 104.815 12.5787 104.335 12.792C103.865 12.9947 103.305 13.096 102.655 13.096C101.705 13.096 100.943 12.8667 100.367 12.408C99.8014 11.9493 99.5188 11.3467 99.5188 10.6C99.5188 9.85333 99.7908 9.256 100.335 8.808C100.879 8.34933 101.743 8.12 102.927 8.12H105.359V7.816C105.359 7.15467 105.167 6.648 104.783 6.296C104.399 5.944 103.833 5.768 103.087 5.768C102.585 5.768 102.095 5.85333 101.615 6.024C101.135 6.184 100.729 6.40267 100.399 6.68L99.7588 5.528C100.196 5.176 100.719 4.90933 101.327 4.728C101.935 4.536 102.58 4.44 103.263 4.44ZM102.911 11.912C103.497 11.912 104.004 11.784 104.431 11.528C104.857 11.2613 105.167 10.888 105.359 10.408V9.224H102.991C101.689 9.224 101.039 9.66133 101.039 10.536C101.039 10.9627 101.204 11.2987 101.535 11.544C101.865 11.7893 102.324 11.912 102.911 11.912ZM108.793 16.104C109.433 14.984 109.903 13.8107 110.201 12.584C110.511 11.3573 110.665 10.0347 110.665 8.616C110.665 7.19733 110.511 5.87467 110.201 4.648C109.903 3.42133 109.433 2.248 108.793 1.128H110.249C110.868 2.088 111.343 3.208 111.673 4.488C112.004 5.768 112.169 7.144 112.169 8.616C112.169 10.0773 112.004 11.448 111.673 12.728C111.343 14.008 110.868 15.1333 110.249 16.104H108.793Z"
        fill="#9764C7"
      />
    </svg>